<?xml version="1.0" encoding="iso-8859-1"?>
<!-- Generator: Adobe Illustrator 19.0.0, SVG Export Plug-In . SVG Version: 6.00 Build 0)  -->
<svg version="1.1" id="Capa_1" xmlns="http://www.w3.org/2000/svg" xmlns:xlink="http://www.w3.org/1999/xlink" x="0px" y="0px"
	 width="42px" height="42px"  viewBox="0 0 120 120" style="enable-background:new 0 0 120 120;" xml:space="preserve">
<g id="_x30_405-vegetables">
	<g>
		<path style="fill-rule:evenodd;clip-rule:evenodd;" d="M118.526,72.053c0.324-1.148,0.713-2.233,1.227-3.191
			c0.616-4.338,0.094-9.109-1.718-11.777c-1.803-0.619-4.968-0.835-6.135,0.49c-0.752,1.946,0.397,5.795-0.736,7.361
			c-3.239-2.229-9.207-0.254-13.497-1.473c2.236-5.818,3.617-13.674,2.7-21.84c-0.875-1.171-1.564-2.525-2.209-3.927
			c-1.346-1.107-2.314-2.593-3.925-3.435c-1.394-0.98-2.678-2.068-5.154-1.963c-0.618,0.608-1.526,0.927-1.473,2.208
			c0.459,1.586,2.111,1.979,3.19,2.944c0.538,0.525,1.363,0.764,1.717,1.473c0.435,0.387,1.505,0.877,0.981,1.473
			c-1.901,0.553-3.131,1.775-5.152,2.209c-0.301-4.281-2.213-6.95-4.172-9.571c-1.134-0.748-2.237-1.524-3.436-2.209
			c-1.113-0.112-2.013-0.441-3.191-0.49c-1.915,0.157-3.357,0.358-4.908,0.981c-0.105,0.042,0.012,0.232-0.246,0.245
			c-0.614,0.032-0.937,0.418-1.473,0.737c-1.788,1.06-2.606,1.801-3.681,3.435c-0.733,1.115-1.37,2.77-1.472,4.908
			c0.123,2.411,0.917,4.153,1.472,6.136c-1.218-0.066-2.889,0.699-3.926,0c0.532-1.402-0.132-2.499,0-4.172
			c-0.479-0.748-0.523-1.933-0.982-2.7c-0.328-0.897-0.936-1.519-1.228-2.454c0.906,0.006,1.69-0.109,1.718-0.981
			c0.461-0.603,0.445-1.681,0.737-2.454c0.152-0.912,0.584-1.541,0.736-2.454c0.683-1.362,0.832-3.257,1.717-4.417h3.19
			c1.631-0.414,4.221,0.131,4.172-1.963c-0.368-2.138-3.884-1.408-5.889-1.227c0.17-0.976,1.078-1.212,1.472-1.963
			c0.072-0.501,0.664-0.482,0.737-0.982c0.428,0.073,0.861-0.952,0-0.735c-4.068,0.186-4.838,3.667-6.872,5.889
			c-0.705-1.34-0.765-3.325-2.208-3.926c-0.719,1.376,0.68,2.53,0.246,4.416c0.532-0.04,0.112,0.871,0.245,1.228
			c0.432,0.059,0.56,0.422,0.492,0.981c-0.307,0.838-0.527,1.764-0.982,2.454c0.179,0.75-0.424,0.723-0.245,1.473
			c-0.666-0.176,0.174,1.156-0.492,0.98v1.474c-0.234,0.457,0.735,0.819,0,0.981c-1.346-1.108-3.102-1.806-4.416-2.945
			c-1.046,0.146-1.624-0.176-2.455-0.245c-1.132-0.151-1.411,0.552-2.454,0.491c-0.117-1.672,0.12-2.989,0.246-4.417
			c-0.156-1.562-0.558-2.878-0.736-4.418c-0.248-0.003-0.308-0.431,0-0.49v0.49c0.518,0.219,0.725,0.747,1.473,0.736
			c0.191-5.943,1.466-10.804,5.644-12.761c1.355-0.433,3.773-0.307,5.153,0c0.68,0.466,1.345,0.945,1.964,1.474
			c0.747,0.198,1.058,1.706,1.963,0.982c0.47-0.594,0.155-1.973,0.246-2.945C68.42,9.022,69.969,5.5,75.091,5.55
			c0.609,0.536,1.536,0.755,1.718,1.718c0.368,0.695,0.511,1.615,0.736,2.454c-0.064,1.944-0.078,3.841,1.472,4.172
			c1.068,0.168,1.359-0.442,1.719-0.982c0.782-0.118,0.167-1.633,0.736-1.963c-0.234-3.365-1.197-6.001-2.945-7.853
			c-0.718-0.182-1.206-0.593-1.717-0.981c-0.388-0.02-0.937,0.118-0.981-0.245C71.165,1.46,68.79,3.34,66.502,5.305
			c-0.248,0.488-0.424,1.048-0.981,1.227c0,0.819-0.799,0.838-0.737,1.718c-0.541,0.194-0.319,1.153-0.981,1.228
			c-1.254-0.709-2.622-1.306-4.417-1.473c-6.046,0.416-8.744,4.18-10.061,9.324v5.154c0.072,0.15,0.61,0.944,0,0.98
			c-0.476-1.404-1.443-2.32-2.209-3.435c-0.42,0.011-0.636-0.183-0.736-0.491c-0.773-0.291-1.85-0.275-2.454-0.736
			c-0.14-1.985-0.323-3.93-1.227-5.152c-0.495-1.632-1.918-2.336-2.945-3.437c-1.414-0.304-2.785-0.651-4.662-0.49
			c-0.218,0.19-0.555,0.264-0.983,0.246c-1.161,0.229-1.711,1.068-2.944,1.226c-0.9-3.517-3.302-5.53-5.399-7.852
			c-0.808-0.092-1.226-0.573-1.718-0.982c-0.628-0.025-1.17-0.139-1.472-0.49H18.65c-0.303,0.352-0.845,0.465-1.473,0.49
			c-0.17,0.484-0.654,0.654-1.227,0.736c-0.551,0.758-1.205,1.412-1.963,1.963c-0.62,1.671-1.549,3.033-1.717,5.153
			c-0.188,3.378,0.45,5.931,0.982,8.589c-1.299,0.01-1.732,0.887-2.699,1.227c-1.69,1.664-2.887,3.821-2.7,7.362
			c0.246,1.881,0.847,3.406,1.227,5.153c-1.193,0.524-2.223,1.212-3.436,1.718C3.239,37.582,0.475,40.543,0,45.795v3.927
			c1.435,8.952,5.396,15.38,10.553,20.613c2.427,2.808,5.29,5.179,8.342,7.36c3.303,1.852,6.889,3.42,11.042,4.418
			c0.606-0.031,1.183-0.037,1.474,0.246c0.106-0.549,1.209-0.1,1.718-0.246c0.436,0.146,1.019-0.719,1.227,0
			c-0.649,1.396-1.194,2.896-1.472,4.662v4.664c0.824,4.002,2.005,7.646,3.435,11.041c1.598,3.148,3.626,5.863,5.889,8.344
			c2.523,2.305,5.241,4.412,9.081,5.4c0.805,0.42,1.804,0.648,2.944,0.734c0.778,0.369,2.167,0.123,2.945,0.49
			c2.035,0.338,4.196,0.551,6.38,0.738h0.981c1.082-0.064,1.898-0.393,3.19-0.246c0.248-0.406,1.042-0.268,1.472-0.492
			c0.459-0.195,0.899-0.408,1.473-0.49c0.926-0.381,1.836-0.779,2.944-0.98c1.909-0.709,3.769-1.467,5.398-2.455
			c3.598-1.555,6.794-3.512,10.306-5.152c1.432-1.186,3.383-1.854,4.91-2.945c1.821-0.795,3.928-1.307,5.397-2.453
			c1.896-0.725,3.458-1.779,4.909-2.945c0.839-0.512,1.515-1.072,2.209-1.719c0.606-0.562,0.98-1.559,1.963-1.717
			c0.264,1.289,0.511,2.596,1.963,2.699c1.538,0.312,1.597-0.855,2.453-1.227c-0.038-0.693,0.694-0.615,0.981-0.982
			c0.5-0.072,0.481-0.664,0.981-0.736c1.005-2.021,2.025-4.027,2.699-6.379c0.869-2.16,1.528-4.525,1.964-7.117
			c0.09-2.984,0.109-3.355,0-6.379C119.394,74.947,118.889,73.57,118.526,72.053z M77.054,35.243
			c1.011-0.192,1.26,0.376,2.209,0.245c1.268,1.187,2.773,2.135,3.19,4.172c-2.017,0.519-3.577,1.494-6.38,1.227
			C74.798,38.893,76.58,36.979,77.054,35.243z M57.668,39.415c0.082,0.817,0.711,1.088,0.49,2.208
			c-0.123,0.94-1.295,0.831-1.718,1.473h-1.718c-1.477-0.486-2.845-1.081-3.189-2.699C51.22,37.028,56.522,38.096,57.668,39.415z
			 M11.779,24.2c0.557-0.179,0.734-0.739,0.981-1.227c0.652-0.165,1.25-0.386,1.718-0.735c2.103-0.419,3.739,0.776,5.153,0.245
			c0.217-0.788-0.809-0.336-0.736-0.982c-0.565,0.076-0.272-0.709-0.736-0.735c-0.286-1.187-0.958-1.986-1.472-2.944
			c0.032-0.605,0.038-1.183-0.245-1.474V9.968c0.623-1.178,1.329-2.271,2.208-3.191c0.889-0.42,2.005-0.612,3.435-0.491
			c0.04,0.287,0.447,0.206,0.737,0.245c0.649,0.577,1.396,1.058,2.208,1.473c1.487,2.44,3.927,3.927,4.417,7.361
			c0.83,0.094,1.048-0.425,1.473-0.735c0.628-0.026,1.17-0.14,1.472-0.49c1.902,0.02,3.341-0.423,5.399-0.246
			c1.761,1.101,3.053,2.672,3.436,5.153c0.112,1.195-0.258,2.874,0.244,3.681c0.849,0.411,1.627-0.2,2.944,0
			c1.867,1.896,2.587,4.938,2.455,8.834c-0.136,0.544,0.469,0.349,0.491,0.737c-0.435,1.164,0.152,1.289,0.245,2.453
			c-3.728,1.457-5.992,5.303-5.153,10.552c-0.543,0.847-1.384,1.397-2.699,1.474c-0.672-1.701-0.591-4.154-0.981-6.136
			c0.521-1.771,0.77-3.812,1.228-5.645c0.414-1.436,1.476-4.411-0.246-5.153c-2.52,0.425-2.843,3.047-3.436,5.399
			c-1.018-0.782-1.476-2.123-2.209-3.191c-0.763-1.037-1.732-1.866-2.208-3.19c0.202-2.355,2.583-4.522,1.228-6.87
			c-2.702-0.084-3.016,2.219-3.927,3.926c-1.5-0.382-1.613-2.15-3.681-1.963c-1.827,1.525,0.79,3.594,1.473,4.907
			c0.771,0.537,1.102,1.515,1.717,2.209c0.595,0.631,1.174,1.28,1.718,1.963c-0.303,0.746-0.844-0.266-1.472,0
			c-0.314-0.341-1.159-0.149-1.473-0.49c-1.834,0-3.964-0.62-5.644,0c-0.057,2.592,2.644,2.427,4.417,3.189
			c2.039,0.497,4.051,1.021,6.626,0.981c0.971,1.565,1.943,3.128,2.208,5.398c-1.362-0.182-3.606-2.039-4.663-0.245
			c-0.211,1.52,1.05,1.567,1.472,2.454c0.511,0.144,0.794,0.516,1.228,0.736c0.077,0.577,1.162,0.146,0.98,0.981
			c-6.015-0.609-11.612-1.638-16.686-3.19c0.15-1.209,0.085-2.39-0.246-3.681c-0.004-1.312,1.663-0.956,1.227-2.699
			c-0.096-1.05-1.122-1.169-2.208-1.227c-1.481-1.628-3.071-3.146-4.172-5.153C11.679,28.19,11.32,26.262,11.779,24.2z
			 M11.043,40.15h0.49v0.491h-0.49V40.15z M9.08,37.696v1.228C7.936,38.92,7.936,37.701,9.08,37.696z M36.073,79.414
			c-0.801,0.064-0.52-0.951-1.226-0.98c-0.368-0.289-1.005-0.307-1.227-0.738c-1.521-0.123-3.133-0.229-4.417-0.734
			c-0.073-0.029-0.05-0.197-0.245-0.246c-0.518-0.129-1.376-0.271-1.963-0.49c-0.064-0.023-0.057-0.199-0.246-0.246
			c-1.619-0.404-3.521-1.387-4.909-2.455c-0.799-0.111-1.296-0.811-1.963-1.225c-0.19-0.119-0.516-0.1-0.736-0.246
			c-0.345-0.232-0.624-0.738-0.981-0.982c-0.463-0.314-0.962-0.229-1.227-0.735c-0.758-0.552-1.624-0.993-2.207-1.719
			c-0.725-0.584-1.758-0.86-1.964-1.963c2.564,0.591,6.184,2.026,9.08,0.735c-0.015-1.456-1.334-1.609-2.209-2.207
			c-1.208-0.182-2.268-0.514-3.435-0.737c-2.366-0.497-4.438-1.288-6.872-1.718c-0.993-1.134-1.837-2.415-2.454-3.926
			c2.509,0.6,4.072,2.145,6.871,2.453c0.829,0.727,2.337,0.772,3.682,0.982c1.586,0.115,2.723-0.221,3.19-1.226
			c-0.33-0.735-0.939-1.19-1.719-1.473c-0.678-0.304-1.246-0.717-2.208-0.736c-1.271-0.774-3.139-0.95-4.417-1.717
			c-3.003-1.006-5.548-2.47-7.852-4.172c-0.299-0.439-0.046-1.429-0.492-1.719c-0.146-0.508,0.304-1.611-0.246-1.718
			c0.254-0.981,0.974,0.056,1.227,0.49c0.657,0.162,0.934,0.703,1.473,0.982c1.142,0.575,2.065,1.37,3.435,1.718
			c0.568,0.332,1.095,0.705,1.964,0.736c0.24,0.578,1.416,0.219,1.717,0.735c1.426,0.072,3.485,0.716,4.172-0.49
			c0.184-1.573-1.186-1.594-1.963-2.209c-0.932-0.376-1.629-0.988-2.699-1.227c-1.668-0.95-3.58-1.655-5.153-2.699
			c-1.323-1.294-2.44-2.796-3.435-4.417v-0.982c1.1,0.045,1.428,0.862,2.207,1.228c1.085-0.022,1.772,0.355,2.208,0.982
			c0.911,0.152,1.437,0.69,2.209,0.981c0.7,0.364,1.624,0.503,2.208,0.981c3.159,1.014,6.311,2.032,9.816,2.699
			c6.905,1.521,14.417,2.434,22.577,2.7c0.851-0.196,0.943,0.365,1.718,0.245h14.233c3.217-0.382,6.786-0.412,9.816-0.982
			c1.641-0.157,3.08-0.517,4.663-0.736c0.879-0.021,1.417-0.382,2.208-0.49c0.656-0.163,1.534-0.104,1.964-0.491
			c3.238-0.361,5.694-1.505,8.589-2.209c2.593-0.924,4.562-2.473,7.117-3.436c0.212,8.065-1.464,14.241-3.436,20.123
			c-2.08,0.047-4.554-0.301-5.644,0.735c-0.293,0.688-0.271,1.693-0.246,2.7c0.371,0.396,0.999,1.18,0.49,1.717
			c-4.369,0.54-7.401,2.416-11.779,2.945h-5.889c-5.309-0.172-8.991-1.971-14.233-2.209C46.112,70.148,40.536,74.225,36.073,79.414z
			 M104.783,92.91c-1.122,0.678-2.313,1.285-3.189,2.209c-0.577-0.006-0.722,0.424-1.472,0.246
			c-2.296,1.957-5.406,3.102-7.852,4.908c-3.045,1.209-5.91,2.596-8.835,3.926c-0.769,0.115-0.691-0.617-0.981-0.982
			c-0.223-0.43-0.86-0.447-1.227-0.736c-1.572,0.09-2.053,1.646-1.472,3.191c-1.33,0.223-2.427,0.684-3.926,0.736
			c-0.673-0.227-1.027-0.775-1.227-1.473c-0.496-0.324-0.831-0.807-0.982-1.473c-0.803-0.914-1.254-2.182-2.7-2.453
			c-0.657,0.16-0.933,0.701-1.472,0.98c-0.147,1.291,0.182,2.109,0.245,3.189c0.116,0.768,1.045,1.533,0.49,2.209
			c-4.337,0.969-3.527-4.469-7.362-3.189c-0.875,0.508-0.396,2.273-0.246,3.189h-2.699c-1.167-1.041-1.77-2.646-2.944-3.68
			c-0.434-1.285-0.925-2.512-1.963-3.191c-1.093,0.053-1.096,1.195-1.718,1.719c0.155,0.826-0.316,2.279,0.246,2.699
			c-0.619,0.682-1.078-0.871-1.227-1.473c-0.43-0.553-0.583-1.381-0.981-1.963c-0.22-0.926-0.212-2.08-0.491-2.945
			c-0.353-0.711-1.114-1.012-1.963-1.227c-2.243,0.184-2.472,2.943-1.963,5.152c-1.757-0.531-2.508-2.072-3.681-3.189
			c-0.97-1.238-1.599-2.818-2.454-4.172c-0.163-0.9-0.262-1.865-0.492-2.699v-2.453c0.531-2.824,1.69-5.02,2.946-7.117
			c3.32-2.979,7.601-4.996,13.742-5.154c0.57-0.328,1.394-0.404,1.962-0.734h4.418c2.051,0.811,4.696,1.029,7.362,1.227
			c3.848-0.242,7.361-0.818,10.306-1.963c2.654-1.438,5.101-3.08,7.607-4.664c0.219-0.107,0.44-0.215,0.491-0.49h0.736
			c1.549,1.314,3.063,2.662,5.644,2.945c0.439,0.617-0.629,1.369-0.98,1.963c-0.454,0.609-0.743,1.385-1.473,1.717
			c-0.827,1.381-2.531,1.887-2.944,3.682c0.262,0.883,0.635,1.654,1.471,1.963c0.659,0.406,1.087,1.041,1.717,1.473
			c2.082,0.508,4.503,0.164,6.38-0.244c-0.319,1.56-0.253,3.508-0.245,5.398c0.619,1.098,1.542,1.895,2.945,2.207
			c2.049-0.322,2.496-2.246,4.418-2.697C107.086,91.615,105.348,91.676,104.783,92.91z M115.09,81.623
			c-0.284,2.25-0.808,4.264-1.472,6.135c-0.272,1.037-0.782,1.836-0.981,2.945c-0.637,0.59-0.45,2.004-1.473,2.207
			c-0.393-1.324-0.501-2.934-1.228-3.926c0.143-1.94-0.049-3.549-0.981-4.416c-3.037-0.258-4.093,1.469-5.644,2.699
			c-0.56-0.342-0.091-1.709-0.245-2.455c0.436-0.465,0.179-1.621,0.245-2.453c0.565-0.99,1.483-1.625,1.472-3.191
			c-0.907-1.029-3.315-0.301-4.416,0c-1.316,0.484-2.326,1.275-3.926,1.473c1.554-2.303,3.913-4.787,2.944-8.834
			c-0.877-1.331-2.921-1.496-4.662-1.963c-0.557-0.752-1.549-1.068-2.209-1.718c0.42-0.562,1.873-0.09,2.7-0.245
			c2.651-0.131,5.843,0.281,8.097-0.246c1.244-0.016,2.033,0.422,3.437,0.246c0.341,0.475,1.27,0.365,1.717,0.735
			c0.637,0.099,0.74,0.733,1.471,0.737c-0.06,1.165-0.751,1.701-0.981,2.699c0.167,0.896,0.343,1.783,0.246,2.945
			c0.059,0.676,0.912,0.559,1.227,0.98c1.816,0.1,2.473-0.961,3.926-1.227C115.126,76.516,115.156,79.022,115.09,81.623z
			 M115.826,68.126c-0.903,0.226-0.445-1.295-0.244-1.473c-0.144-0.797,0.167-1.142,0.244-1.718v-3.682
			c0.354,0.057,0.086,0.733,0.491,0.737C116.22,64.102,116.623,66.713,115.826,68.126z M80.98,14.875h-2.208
			c-0.312,0.342-1.202,0.107-1.227,0.736c-0.57,0.085-1.151,0.158-0.982,0.981c0.421,1.38,2.1,1.499,3.436,1.963
			c0.679,0.793,1.682,1.263,2.209,2.209c0.941,1.512,1.316,3.592,1.472,5.889c0.202,1.026,0.478,1.976,0.491,3.191
			c-0.197,0.851,0.366,0.943,0.245,1.718c0.029,0.626,0.047,1.263,0.735,1.228c1.978-0.559,1.749-3.322,2.209-5.398v-3.682
			c-0.57-3.274-1.943-5.745-3.926-7.606c-0.718-0.182-1.206-0.595-1.717-0.981C81.428,15.082,81.019,15.163,80.98,14.875z
			 M50.551,58.31c-0.438-0.298-1.428-0.045-1.718-0.49c-4.543-0.038-8.158-1.003-13.006-0.735c-0.228,0.261-0.906,0.075-0.736,0.735
			c-0.667,0.223,0.25,0.859,0.245,1.228c0.367,0.286,1.003,0.305,1.227,0.735c1.353,0.038,2.248,0.532,3.436,0.736
			c2.144,0.555,4.579,0.818,6.871,1.228c2.144,0.017,4.584,0.33,4.417-1.964C51.501,58.833,50.689,58.91,50.551,58.31z
			 M31.656,61.746c-0.635,0.346-1.17,0.792-0.981,1.963c0.728,1.48,2.934,1.483,4.908,1.717c1.889,0.376,4.676,0.516,5.399-0.981
			C40.811,61.023,34.345,62.344,31.656,61.746z"/>
	</g>
</g>
<g>
</g>
<g>
</g>
<g>
</g>
<g>
</g>
<g>
</g>
<g>
</g>
<g>
</g>
<g>
</g>
<g>
</g>
<g>
</g>
<g>
</g>
<g>
</g>
<g>
</g>
<g>
</g>
<g>
</g>
</svg>
